<svg xmlns="http://www.w3.org/2000/svg" viewBox="0 0 100 100"><defs><style>.cls-1{fill:#0099f5;}.cls-1,.cls-2,.cls-3,.cls-4,.cls-5{stroke:#231f20;stroke-miterlimit:10;stroke-width:1.5px;}.cls-2,.cls-5{fill:none;}.cls-3{fill:#231f20;}.cls-4{fill:#ffd44d;}.cls-5{stroke-dasharray:7.15 7.15;}</style></defs><g id="Layer_2" data-name="Layer 2"><path class="cls-1" d="M80.41,50.19A29.34,29.34,0,0,1,66,75.45a29.41,29.41,0,0,1-29.85,0A29.33,29.33,0,0,1,55.39,21.19,28.76,28.76,0,0,1,66,25,29.29,29.29,0,0,1,80.41,50.19Z"/><path class="cls-1" d="M70.58,50.19A66.83,66.83,0,0,1,66,75.45a29.41,29.41,0,0,1-29.85,0,66.64,66.64,0,0,1-4.58-25.26c0-9.61,1.71-18.42,4.58-25.24a29.32,29.32,0,0,1,19.24-3.76A28.76,28.76,0,0,1,66,25C68.87,31.77,70.58,40.58,70.58,50.19Z"/><path class="cls-1" d="M57.48,50.19a173.32,173.32,0,0,1-2.11,29,29.12,29.12,0,0,1-8.61,0,174.54,174.54,0,0,1-2.1-29,175.74,175.74,0,0,1,2.09-29,29.32,29.32,0,0,1,8.64,0A175.74,175.74,0,0,1,57.48,50.19Z"/><path class="cls-2" d="M24.62,62.88a36.79,36.79,0,0,0,9,4.43A51.75,51.75,0,0,0,46,69.84c1.64.15,3.33.23,5,.23s3.39-.08,5-.23a51.53,51.53,0,0,0,12.45-2.53,37,37,0,0,0,9-4.43"/><path class="cls-2" d="M24.62,37.51a36.07,36.07,0,0,1,9-4.42A52.14,52.14,0,0,1,46,30.54c1.64-.14,3.34-.22,5.06-.22s3.42.08,5.06.22a51.74,51.74,0,0,1,12.43,2.55,36.24,36.24,0,0,1,9,4.42"/><path class="cls-2" d="M22.07,54.55A54.4,54.4,0,0,0,33.69,57.3a118.78,118.78,0,0,0,12.36,1.05c1.63,0,3.31.09,5,.09s3.38,0,5-.09A119.47,119.47,0,0,0,68.46,57.3a54.4,54.4,0,0,0,11.62-2.75"/><path class="cls-2" d="M22.07,45.84A54.46,54.46,0,0,1,33.69,43.1,113.22,113.22,0,0,1,46,42c1.62-.07,3.32-.09,5-.09s3.39,0,5,.09A113.64,113.64,0,0,1,68.46,43.1a54.46,54.46,0,0,1,11.62,2.74"/><path class="cls-3" d="M41.45,69H40.21a9.27,9.27,0,0,0-9.12-7.58h0a9.28,9.28,0,0,0-9.28,9.28v1.52H20.08a6.43,6.43,0,0,0,0,12.85H41.45a8,8,0,0,0,0-16.07Z"/><path class="cls-4" d="M41.45,66.53H40.21A9.28,9.28,0,0,0,31.09,59h0a9.29,9.29,0,0,0-9.28,9.29v1.52H20.08a6.42,6.42,0,0,0,0,12.84H41.45a8,8,0,0,0,0-16.07Z"/><path class="cls-2" d="M17.34,60.53c-.34-1.11-.62-2.25-.85-3.4"/><path class="cls-5" d="M15.81,50a35.26,35.26,0,0,1,30.06-34.7,34.8,34.8,0,0,1,10.39,0A34.81,34.81,0,0,1,69,19.84,35.29,35.29,0,0,1,63.1,83.36"/><path class="cls-2" d="M59.68,84.39c-1.13.28-2.27.51-3.44.68"/></g></svg>