<svg version="1.1" id="Layer_1" xmlns="http://www.w3.org/2000/svg" xmlns:xlink="http://www.w3.org/1999/xlink" x="0px" y="0px"
	 width="100%" viewBox="0 0 200 200" enable-background="new 0 0 200 200" xml:space="preserve">
<path fill="#FEFEFE" opacity="1.000000" stroke="none" 
	d="
M108.000000,201.000000 
	C72.022202,201.000000 36.544395,201.000000 1.033298,201.000000 
	C1.033298,134.397232 1.033298,67.794449 1.033298,1.095829 
	C67.560966,1.095829 134.122116,1.095829 200.841644,1.095829 
	C200.841644,67.666367 200.841644,134.333145 200.841644,201.000000 
	C170.128067,201.000000 139.314026,201.000000 108.000000,201.000000 
M142.818085,109.685028 
	C142.589188,108.485466 142.360291,107.285896 141.459106,106.068405 
	C141.234970,106.072678 141.010849,106.076942 140.643951,105.755264 
	C140.643951,105.755264 140.840057,105.458351 140.887589,104.787018 
	C140.221359,104.067032 139.555130,103.347038 138.888901,102.627045 
	C138.590744,103.091896 138.292572,103.556740 137.411285,103.729332 
	C135.942688,104.158768 134.474091,104.588196 132.626236,104.504341 
	C131.762527,104.953796 130.898804,105.403244 129.594498,106.010040 
	C129.594498,106.010040 129.138702,106.115532 128.523148,106.059113 
	C128.118896,105.982849 127.714653,105.906593 126.973145,105.261223 
	C125.019531,104.471420 123.449753,103.564476 123.243286,107.159309 
	C123.058823,110.370964 123.578278,111.753952 127.553856,110.918343 
	C128.046616,110.604736 128.539368,110.291122 129.461182,110.390366 
	C129.650574,110.449799 129.839951,110.509224 130.198288,111.104858 
	C132.459229,111.072372 134.720154,111.039886 137.702026,110.997566 
	C138.181488,110.974586 138.660934,110.951599 139.651031,110.908310 
	C139.993423,110.556152 140.335831,110.203995 141.410446,109.891273 
	C141.654831,109.895317 141.899216,109.899361 142.818085,109.685028 
M115.815468,111.011208 
	C115.852051,110.037178 115.888641,109.063156 116.236069,107.501160 
	C116.811050,106.569244 117.386032,105.637321 118.494598,103.840569 
	C116.142738,104.573624 115.000702,104.929588 113.674942,105.069344 
	C113.506371,104.946289 113.320351,104.909103 112.231812,104.815536 
	C105.425880,105.548370 110.458710,110.182236 109.196465,112.741791 
	C109.644737,113.037727 110.093010,113.333672 110.541283,113.629608 
	C111.481445,112.462646 112.421600,111.295685 113.731743,110.470139 
	C114.202095,110.621140 114.672455,110.772141 115.815468,111.011208 
M164.925491,80.299889 
	C164.370850,80.299889 163.816208,80.299889 162.481216,80.299889 
	C163.917969,81.084915 164.696808,81.510468 165.218491,82.835968 
	C165.162964,86.895027 165.107452,90.954086 164.408936,95.099358 
	C163.857941,95.510361 163.306946,95.921364 162.429031,96.576225 
	C165.557617,96.576225 168.052109,96.576225 170.546616,96.576225 
	C170.564926,96.333008 170.583237,96.089798 170.601547,95.846581 
	C170.034195,95.625008 169.466843,95.403435 168.919403,94.286446 
	C169.013184,92.678452 169.106964,91.070465 169.226593,89.019463 
	C171.706177,89.019463 173.837143,89.019463 176.233307,89.863564 
	C176.319870,91.821754 176.406418,93.779953 176.512024,96.168922 
	C178.211472,95.964745 179.590607,95.799049 181.301422,95.593506 
	C181.301422,89.935776 181.301422,84.647774 181.301422,79.411331 
	C179.404999,79.411331 177.131256,79.411331 175.463821,79.411331 
	C175.682602,82.093925 175.883896,84.561821 175.187302,87.008484 
	C173.241058,87.008484 171.294800,87.008484 169.229202,87.008484 
	C169.043274,84.937233 168.911346,83.467514 168.934799,81.339348 
	C168.897400,80.891891 168.859985,80.444427 169.368591,79.902641 
	C169.517990,79.853500 169.705017,79.842499 169.805328,79.743576 
	C169.891022,79.659058 169.877213,79.473625 169.907410,79.332832 
	C168.448196,79.649536 166.988998,79.966240 164.925491,80.299889 
M86.145645,105.152939 
	C86.379768,107.068443 86.613892,108.983940 87.507835,110.884079 
	C88.016525,110.608154 88.525208,110.332222 89.015732,109.313255 
	C89.057594,108.573570 89.099464,107.833878 89.889206,107.014900 
	C90.511986,106.298447 91.134766,105.582001 91.757538,104.865547 
	C90.163094,104.950882 88.568642,105.036209 86.145645,105.152939 
M45.045868,110.577614 
	C45.469044,110.421860 45.892220,110.266113 46.995190,110.155167 
	C48.436832,109.446182 49.878475,108.737198 52.260838,107.565567 
	C52.945889,108.055298 54.734726,109.334091 56.990700,110.946838 
	C57.319851,108.602333 57.604656,106.573700 57.889462,104.545059 
	C57.553715,104.468292 57.217968,104.391518 56.882221,104.314751 
	C56.303501,105.164726 55.724777,106.014702 55.146053,106.864677 
	C55.031303,106.368057 54.916553,105.871437 54.801807,105.374817 
	C52.510654,105.266045 50.219498,105.157272 47.217495,104.835770 
	C46.480671,104.891563 45.743843,104.947357 44.197712,104.980560 
	C43.145126,105.851212 42.092541,106.721863 41.039955,107.592514 
	C42.293449,108.406647 43.546944,109.220772 45.045868,110.577614 
M100.432472,109.063370 
	C103.654068,110.888145 102.534630,107.528343 104.239746,106.863861 
	C105.453415,106.389099 106.667076,105.914345 107.880745,105.439583 
	C107.494598,104.839516 107.108459,104.239449 106.722321,103.639381 
	C105.655022,104.613678 104.587723,105.587967 103.087936,106.063805 
	C101.772331,105.733788 100.456726,105.403763 98.456421,104.799805 
	C97.304298,104.133148 96.152176,103.466492 95.000046,102.799828 
	C94.646980,103.092911 94.293907,103.385994 93.940834,103.679077 
	C94.870537,106.325699 95.800240,108.972321 96.808846,111.843582 
	C97.830307,110.996216 98.456284,110.476929 99.595169,109.912369 
	C99.701660,109.777771 99.808151,109.643173 100.432472,109.063370 
M17.004427,94.117577 
	C16.954597,89.435707 16.904768,84.753830 16.457203,79.479485 
	C14.893770,79.335869 13.330338,79.192245 12.221810,79.090416 
	C12.221810,85.312492 12.221810,91.052666 12.221810,96.890434 
	C12.527822,96.890434 13.324920,96.890434 14.864771,96.908569 
	C16.216139,96.622559 17.567507,96.336555 19.268126,95.743919 
	C18.631409,95.488281 17.994694,95.232643 17.004427,94.117577 
M83.253181,79.577469 
	C81.857864,79.396866 80.462540,79.216263 79.480164,79.089104 
	C79.039848,85.238121 78.624458,91.039047 79.017067,96.889099 
	C80.827171,96.889099 82.637283,96.889099 84.054039,96.889099 
	C83.678307,95.010826 83.134438,93.311897 83.107407,91.604782 
	C83.097916,91.005737 84.357635,90.386589 85.222305,90.444321 
	C87.545258,92.885765 88.627487,97.638329 94.141602,94.782234 
	C91.910507,92.947388 89.861320,91.262138 88.486710,90.131660 
	C90.348610,87.676498 93.052574,85.486313 92.665855,84.327957 
	C91.914284,82.076782 89.428001,80.404755 87.013420,77.793068 
	C87.013420,82.179848 87.013420,84.982155 86.162025,87.968025 
	C84.011749,88.400040 82.768074,87.853928 82.967949,85.324432 
	C83.106529,83.570694 82.971603,81.795349 83.253181,79.577469 
M139.573059,96.492599 
	C141.727921,96.677406 143.882797,96.862221 145.921158,97.037041 
	C143.625092,91.671501 141.595963,86.718018 139.348969,81.865387 
	C138.921982,80.943237 137.632492,80.420448 136.740952,79.713394 
	C136.197235,80.434959 135.653519,81.156525 135.052704,82.660789 
	C134.759003,84.172180 134.920776,86.032310 134.082687,87.126900 
	C131.921402,89.949715 133.100235,90.993034 135.886810,90.980347 
	C139.543747,90.963684 140.511566,92.682983 139.573059,96.492599 
M19.927505,80.549744 
	C20.924971,81.852379 22.631546,83.078102 22.782776,84.472511 
	C23.185913,88.189606 22.919903,91.979263 22.919903,95.955551 
	C27.183115,93.524239 23.442711,88.631378 25.353161,85.898148 
	C29.396744,89.624046 33.300854,93.221428 38.284370,97.813416 
	C38.284370,90.755493 38.284370,84.987976 38.284370,79.048752 
	C36.937286,79.125328 35.198452,79.224174 34.764206,79.248856 
	C35.341820,83.004608 35.867130,86.420288 36.392441,89.835968 
	C33.285172,88.269684 30.363642,86.660446 29.206926,84.216072 
	C27.137823,79.843613 23.961672,79.447739 19.927505,80.549744 
M71.454506,94.885071 
	C67.163307,96.316826 65.238297,94.987900 65.597710,90.272644 
	C65.868767,86.716515 65.651344,83.123146 65.651344,79.419159 
	C63.343880,79.419159 61.581268,79.419159 60.590065,79.419159 
	C60.590065,85.363335 60.590065,91.110382 60.590065,96.866234 
	C75.241753,97.224022 76.032486,97.684364 74.840515,92.497749 
	C73.837738,93.243141 72.984215,93.877586 71.454506,94.885071 
M121.471481,79.633705 
	C119.052818,79.430122 116.634155,79.226540 114.460648,79.043594 
	C116.599640,85.230316 117.152489,91.049706 113.864586,97.563835 
	C116.341400,96.809013 118.281372,96.217789 118.950981,96.013718 
	C119.903549,90.167587 120.697830,85.292862 121.471481,79.633705 
M99.758339,80.197639 
	C99.511131,81.441193 99.218689,82.677742 99.024948,83.929573 
	C98.359344,88.230247 101.068794,93.253716 95.842239,96.865181 
	C99.202446,96.865181 102.123955,96.865181 103.734573,96.865181 
	C103.429901,93.177414 103.344933,89.597961 102.764740,86.100670 
	C102.426651,84.062759 101.295578,82.156410 99.758339,80.197639 
M47.145088,92.023384 
	C46.708733,93.617355 46.272377,95.211327 45.865345,96.698181 
	C48.436409,96.698181 50.884491,96.698181 53.891083,96.698181 
	C46.734974,91.679070 51.556946,84.968529 49.732098,77.733101 
	C48.480278,80.145744 47.385059,81.379860 47.241306,82.716316 
	C46.942768,85.491875 47.148899,88.321732 47.145088,92.023384 
M148.498962,86.772804 
	C150.006470,87.742775 151.491699,88.749733 153.026642,89.674149 
	C155.415115,91.112595 157.837372,92.494934 160.259323,93.909241 
	C161.957550,90.746933 160.922012,87.225868 156.649689,87.040359 
	C152.124054,86.843857 149.891800,85.246834 150.106598,80.262405 
	C149.647461,80.410454 149.188324,80.558502 148.729187,80.706551 
	C148.549271,82.498268 148.369339,84.289986 148.498962,86.772804 
M61.327358,104.680283 
	C61.407303,106.563545 56.637783,109.732590 63.460575,110.124199 
	C62.922512,108.043304 62.447002,106.204338 61.327358,104.680283 
M120.481346,107.563515 
	C120.481346,107.563515 120.437973,107.483322 120.481346,107.563515 
z"/>
<path fill="#9FBFCE" opacity="1.000000" stroke="none" 
	d="
M19.972336,80.240128 
	C23.961672,79.447739 27.137823,79.843613 29.206926,84.216072 
	C30.363642,86.660446 33.285172,88.269684 36.392441,89.835968 
	C35.867130,86.420288 35.341820,83.004608 34.764206,79.248856 
	C35.198452,79.224174 36.937286,79.125328 38.284370,79.048752 
	C38.284370,84.987976 38.284370,90.755493 38.284370,97.813416 
	C33.300854,93.221428 29.396744,89.624046 25.353161,85.898148 
	C23.442711,88.631378 27.183115,93.524239 22.919903,95.955551 
	C22.919903,91.979263 23.185913,88.189606 22.782776,84.472511 
	C22.631546,83.078102 20.924971,81.852379 19.972336,80.240128 
z"/>
<path fill="#78AEC7" opacity="1.000000" stroke="none" 
	d="
M71.792603,94.698555 
	C72.984215,93.877586 73.837738,93.243141 74.840515,92.497749 
	C76.032486,97.684364 75.241753,97.224022 60.590065,96.866234 
	C60.590065,91.110382 60.590065,85.363335 60.590065,79.419159 
	C61.581268,79.419159 63.343880,79.419159 65.651344,79.419159 
	C65.651344,83.123146 65.868767,86.716515 65.597710,90.272644 
	C65.238297,94.987900 67.163307,96.316826 71.792603,94.698555 
z"/>
<path fill="#85B1C5" opacity="1.000000" stroke="none" 
	d="
M176.085175,87.029709 
	C175.883896,84.561821 175.682602,82.093925 175.463821,79.411331 
	C177.131256,79.411331 179.404999,79.411331 181.301422,79.411331 
	C181.301422,84.647774 181.301422,89.935776 181.301422,95.593506 
	C179.590607,95.799049 178.211472,95.964745 176.512024,96.168922 
	C176.406418,93.779953 176.319870,91.821754 176.398773,89.401642 
	C176.904572,88.546928 177.244888,88.154144 177.585190,87.761368 
	C177.085190,87.517479 176.585175,87.273598 176.085175,87.029709 
z"/>
<path fill="#88B4C8" opacity="1.000000" stroke="none" 
	d="
M121.481796,80.025917 
	C120.697830,85.292862 119.903549,90.167587 118.950981,96.013718 
	C118.281372,96.217789 116.341400,96.809013 113.864586,97.563835 
	C117.152489,91.049706 116.599640,85.230316 114.460648,79.043594 
	C116.634155,79.226540 119.052818,79.430122 121.481796,80.025917 
z"/>
<path fill="#85B1C5" opacity="1.000000" stroke="none" 
	d="
M100.139816,80.194252 
	C101.295578,82.156410 102.426651,84.062759 102.764740,86.100670 
	C103.344933,89.597961 103.429901,93.177414 103.734573,96.865181 
	C102.123955,96.865181 99.202446,96.865181 95.842239,96.865181 
	C101.068794,93.253716 98.359344,88.230247 99.024948,83.929573 
	C99.218689,82.677742 99.511131,81.441193 100.139816,80.194252 
z"/>
<path fill="#8BAFC0" opacity="1.000000" stroke="none" 
	d="
M175.636230,87.019096 
	C176.585175,87.273598 177.085190,87.517479 177.585190,87.761368 
	C177.244888,88.154144 176.904572,88.546928 176.266174,88.979584 
	C173.837143,89.019463 171.706177,89.019463 169.226593,89.019463 
	C169.106964,91.070465 169.013184,92.678452 168.685028,94.885635 
	C167.317764,95.327599 166.184845,95.170372 165.051941,95.013153 
	C165.107452,90.954086 165.162964,86.895027 165.670349,82.409912 
	C167.007935,81.988510 167.893677,81.993156 168.779419,81.997803 
	C168.911346,83.467514 169.043274,84.937233 169.229202,87.008484 
	C171.294800,87.008484 173.241058,87.008484 175.636230,87.019096 
z"/>
<path fill="#E1E9ED" opacity="1.000000" stroke="none" 
	d="
M87.013412,87.784462 
	C87.013420,84.982155 87.013420,82.179848 87.013420,77.793068 
	C89.428001,80.404755 91.914284,82.076782 92.665855,84.327957 
	C93.052574,85.486313 90.348610,87.676498 88.486710,90.131660 
	C89.861320,91.262138 91.910507,92.947388 94.141602,94.782234 
	C88.627487,97.638329 87.545258,92.885765 85.430710,90.017517 
	C86.097214,88.988632 86.555313,88.386543 87.013412,87.784462 
z"/>
<path fill="#9EBDCB" opacity="1.000000" stroke="none" 
	d="
M47.146332,91.576324 
	C47.148899,88.321732 46.942768,85.491875 47.241306,82.716316 
	C47.385059,81.379860 48.480278,80.145744 49.732098,77.733101 
	C51.556946,84.968529 46.734974,91.679070 53.891083,96.698181 
	C50.884491,96.698181 48.436409,96.698181 45.865345,96.698181 
	C46.272377,95.211327 46.708733,93.617355 47.146332,91.576324 
z"/>
<path fill="#8DBACF" opacity="1.000000" stroke="none" 
	d="
M148.344193,86.427254 
	C148.369339,84.289986 148.549271,82.498268 148.729187,80.706551 
	C149.188324,80.558502 149.647461,80.410454 150.106598,80.262405 
	C149.891800,85.246834 152.124054,86.843857 156.649689,87.040359 
	C160.922012,87.225868 161.957550,90.746933 160.259323,93.909241 
	C157.837372,92.494934 155.415115,91.112595 153.026642,89.674149 
	C151.491699,88.749733 150.006470,87.742775 148.344193,86.427254 
z"/>
<path fill="#50A7D0" opacity="1.000000" stroke="none" 
	d="
M135.109802,81.878098 
	C135.653519,81.156525 136.197235,80.434959 136.740952,79.713394 
	C137.632492,80.420448 138.921982,80.943237 139.348969,81.865387 
	C141.595963,86.718018 143.625092,91.671501 145.921158,97.037041 
	C143.882797,96.862221 141.727921,96.677406 140.056961,96.111649 
	C142.206802,92.694160 138.721817,82.855721 135.565140,81.718628 
	C135.447739,81.676331 135.263107,81.820717 135.109802,81.878098 
z"/>
<path fill="#9EBDCB" opacity="1.000000" stroke="none" 
	d="
M135.081253,82.269440 
	C135.263107,81.820717 135.447739,81.676331 135.565140,81.718628 
	C138.721817,82.855721 142.206802,92.694160 140.185654,95.826462 
	C140.511566,92.682983 139.543747,90.963684 135.886810,90.980347 
	C133.100235,90.993034 131.921402,89.949715 134.082687,87.126900 
	C134.920776,86.032310 134.759003,84.172180 135.081253,82.269440 
z"/>
<path fill="#AEAEAE" opacity="1.000000" stroke="none" 
	d="
M47.928345,105.048500 
	C50.219498,105.157272 52.510654,105.266045 54.801807,105.374817 
	C54.916553,105.871437 55.031303,106.368057 55.146053,106.864677 
	C55.724777,106.014702 56.303501,105.164726 56.882221,104.314751 
	C57.217968,104.391518 57.553715,104.468292 57.889462,104.545059 
	C57.604656,106.573700 57.319851,108.602333 56.990700,110.946838 
	C54.734726,109.334091 52.945889,108.055298 52.260838,107.565567 
	C49.878475,108.737198 48.436832,109.446182 46.528839,109.774719 
	C46.684441,107.945686 47.306393,106.497093 47.928345,105.048500 
z"/>
<path fill="#349AC9" opacity="1.000000" stroke="none" 
	d="
M86.587723,87.876244 
	C86.555313,88.386543 86.097214,88.988632 85.338455,89.683670 
	C84.357635,90.386589 83.097916,91.005737 83.107407,91.604782 
	C83.134438,93.311897 83.678307,95.010826 84.054039,96.889099 
	C82.637283,96.889099 80.827171,96.889099 78.874580,96.617355 
	C79.493996,95.134888 80.816277,93.966286 80.911026,92.705429 
	C81.178062,89.151985 80.833565,85.555748 80.995987,81.988480 
	C81.027008,81.307167 82.273293,80.681175 82.958885,80.029655 
	C82.971603,81.795349 83.106529,83.570694 82.967949,85.324432 
	C82.768074,87.853928 84.011749,88.400040 86.587723,87.876244 
z"/>
<path fill="#9FBFCE" opacity="1.000000" stroke="none" 
	d="
M14.122017,96.890434 
	C13.324920,96.890434 12.527822,96.890434 12.221810,96.890434 
	C12.221810,91.052666 12.221810,85.312492 12.221810,79.090416 
	C13.330338,79.192245 14.893770,79.335869 16.299942,79.764275 
	C15.704387,80.619629 14.921178,81.167564 14.882039,81.764297 
	C14.551671,86.801292 14.357275,91.847206 14.122017,96.890434 
z"/>
<path fill="#349AC9" opacity="1.000000" stroke="none" 
	d="
M14.493394,96.899506 
	C14.357275,91.847206 14.551671,86.801292 14.882039,81.764297 
	C14.921178,81.167564 15.704387,80.619629 16.498810,80.060516 
	C16.904768,84.753830 16.954597,89.435707 17.269522,94.787880 
	C17.996037,95.655640 18.457455,95.853096 18.918873,96.050545 
	C17.567507,96.336555 16.216139,96.622559 14.493394,96.899506 
z"/>
<path fill="#8DBACF" opacity="1.000000" stroke="none" 
	d="
M83.106033,79.803558 
	C82.273293,80.681175 81.027008,81.307167 80.995987,81.988480 
	C80.833565,85.555748 81.178062,89.151985 80.911026,92.705429 
	C80.816277,93.966286 79.493996,95.134888 78.470581,96.592789 
	C78.624458,91.039047 79.039848,85.238121 79.480164,79.089104 
	C80.462540,79.216263 81.857864,79.396866 83.106033,79.803558 
z"/>
<path fill="#F9FAFA" opacity="1.000000" stroke="none" 
	d="
M130.035095,105.852699 
	C130.898804,105.403244 131.762527,104.953796 132.916565,105.174240 
	C135.070038,105.960472 136.933151,106.076805 138.856155,106.653671 
	C138.874863,107.728600 138.833694,108.342972 138.413834,109.031265 
	C137.683792,109.739250 137.332443,110.373329 136.981094,111.007408 
	C134.720154,111.039886 132.459229,111.072372 130.280060,110.421219 
	C130.360153,109.142647 130.358444,108.547699 130.465759,107.849884 
	C130.707535,107.437996 130.610840,107.200081 130.238144,106.734787 
	C130.139450,106.241760 130.087280,106.047226 130.035095,105.852699 
z"/>
<path fill="#DBDBDB" opacity="1.000000" stroke="none" 
	d="
M99.082260,109.957642 
	C98.456284,110.476929 97.830307,110.996216 96.808846,111.843582 
	C95.800240,108.972321 94.870537,106.325699 93.940834,103.679077 
	C94.293907,103.385994 94.646980,103.092911 95.000046,102.799828 
	C96.152176,103.466492 97.304298,104.133148 98.774750,105.181900 
	C99.093079,105.563988 99.136734,106.054649 98.993553,106.427750 
	C98.927666,107.853119 99.004959,108.905380 99.082260,109.957642 
z"/>
<path fill="#212121" opacity="1.000000" stroke="none" 
	d="
M113.361771,110.128723 
	C112.421600,111.295685 111.481445,112.462646 110.541283,113.629608 
	C110.093010,113.333672 109.644737,113.037727 109.196465,112.741791 
	C110.458710,110.182236 105.425880,105.548370 112.688904,105.320015 
	C113.217918,107.259239 113.289848,108.693977 113.361771,110.128723 
M112.039589,107.789886 
	C111.574341,107.297775 111.109093,106.805656 110.643845,106.313545 
	C110.477592,107.077187 110.311340,107.840836 110.145088,108.604485 
	C110.749245,108.607300 111.353394,108.610123 112.039589,107.789886 
z"/>
<path fill="#3D3D3D" opacity="1.000000" stroke="none" 
	d="
M126.953766,110.961906 
	C123.578278,111.753952 123.058823,110.370964 123.243286,107.159309 
	C123.449753,103.564476 125.019531,104.471420 127.100319,105.973518 
	C127.136253,108.111176 127.045006,109.536545 126.953766,110.961906 
z"/>
<path fill="#3D3D3D" opacity="1.000000" stroke="none" 
	d="
M99.136734,106.054649 
	C99.136734,106.054649 99.093079,105.563988 99.117096,105.318863 
	C100.456726,105.403763 101.772331,105.733788 103.323303,106.289368 
	C103.558678,106.514938 103.419510,106.562332 103.419510,106.562332 
	C102.534630,107.528343 103.654068,110.888145 100.111298,108.976814 
	C99.572327,107.945053 99.354530,106.999855 99.136734,106.054649 
z"/>
<path fill="#DBDBDB" opacity="1.000000" stroke="none" 
	d="
M44.800446,110.034897 
	C43.546944,109.220772 42.293449,108.406647 41.039955,107.592514 
	C42.092541,106.721863 43.145126,105.851212 44.590332,105.412575 
	C44.922112,107.241356 44.861279,108.638130 44.800446,110.034897 
z"/>
<path fill="#C9C9C9" opacity="1.000000" stroke="none" 
	d="
M89.033897,110.056297 
	C88.525208,110.332222 88.016525,110.608154 87.204079,110.479774 
	C86.924950,108.424164 86.949577,106.772850 86.974197,105.121544 
	C88.568642,105.036209 90.163094,104.950882 91.757538,104.865555 
	C91.134766,105.582001 90.511986,106.298447 89.453598,106.765579 
	C88.963875,106.366310 88.943146,106.187332 88.845604,106.075142 
	C88.759819,105.976463 88.588074,105.952515 88.454292,105.895569 
	C88.647499,107.282478 88.840698,108.669388 89.033897,110.056297 
z"/>
<path fill="#C9C9C9" opacity="1.000000" stroke="none" 
	d="
M61.649426,104.522827 
	C62.447002,106.204338 62.922512,108.043304 63.460575,110.124199 
	C56.637783,109.732590 61.407303,106.563545 61.649426,104.522827 
z"/>
<path fill="#85B1C5" opacity="1.000000" stroke="none" 
	d="
M164.730438,95.056259 
	C166.184845,95.170372 167.317764,95.327599 168.675079,95.333344 
	C169.466843,95.403435 170.034195,95.625008 170.601547,95.846581 
	C170.583237,96.089798 170.564926,96.333008 170.546616,96.576225 
	C168.052109,96.576225 165.557617,96.576225 162.429031,96.576225 
	C163.306946,95.921364 163.857941,95.510361 164.730438,95.056259 
z"/>
<path fill="#DBDBDB" opacity="1.000000" stroke="none" 
	d="
M138.796280,106.193130 
	C136.933151,106.076805 135.070038,105.960472 133.106201,105.430878 
	C134.474091,104.588196 135.942688,104.158768 137.768478,104.312225 
	C138.225296,105.172363 138.324936,105.449600 138.474426,105.819031 
	C138.524307,105.911217 138.796280,106.193138 138.796280,106.193130 
z"/>
<path fill="#181818" opacity="1.000000" stroke="none" 
	d="
M138.856155,106.653679 
	C138.796280,106.193138 138.524307,105.911217 138.773819,105.670403 
	C139.628906,105.439178 140.234482,105.448761 140.840057,105.458351 
	C140.840057,105.458351 140.643951,105.755264 140.533905,106.142441 
	C140.508652,107.637024 140.593430,108.744431 140.678223,109.851837 
	C140.335831,110.203995 139.993423,110.556152 139.356598,110.669342 
	C138.972275,109.939362 138.882401,109.448357 138.792526,108.957352 
	C138.833694,108.342972 138.874863,107.728600 138.856155,106.653679 
z"/>
<path fill="#E1E9ED" opacity="1.000000" stroke="none" 
	d="
M103.829628,106.713097 
	C103.419510,106.562332 103.558678,106.514938 103.539551,106.538605 
	C104.587723,105.587967 105.655022,104.613678 106.722321,103.639381 
	C107.108459,104.239449 107.494598,104.839516 107.880745,105.439583 
	C106.667076,105.914345 105.453415,106.389099 103.829628,106.713097 
z"/>
<path fill="#85B1C5" opacity="1.000000" stroke="none" 
	d="
M168.857117,81.668579 
	C167.893677,81.993156 167.007935,81.988510 165.798920,81.959946 
	C164.696808,81.510468 163.917969,81.084915 162.481216,80.299889 
	C163.816208,80.299889 164.370850,80.299889 165.452606,80.379623 
	C166.927338,80.305237 167.874954,80.151100 168.822571,79.996971 
	C168.859985,80.444427 168.897400,80.891891 168.857117,81.668579 
z"/>
<path fill="#AEAEAE" opacity="1.000000" stroke="none" 
	d="
M113.858673,105.285553 
	C115.000702,104.929588 116.142738,104.573624 118.494598,103.840569 
	C117.386032,105.637321 116.811050,106.569244 115.864281,107.755630 
	C115.492493,108.010101 115.061485,108.098015 114.941826,107.735474 
	C114.500999,106.677139 114.179832,105.981354 113.858673,105.285553 
z"/>
<path fill="#AEAEAE" opacity="1.000000" stroke="none" 
	d="
M127.253807,110.940125 
	C127.045006,109.536545 127.136253,108.111176 127.268951,106.258072 
	C127.714653,105.906593 128.118896,105.982849 128.788879,106.471802 
	C129.047119,107.915497 129.039612,108.946503 129.032120,109.977509 
	C128.539368,110.291122 128.046616,110.604736 127.253807,110.940125 
z"/>
<path fill="#DBDBDB" opacity="1.000000" stroke="none" 
	d="
M113.766808,105.177452 
	C114.179832,105.981354 114.500999,106.677139 114.833237,108.085922 
	C114.943810,109.506996 115.043312,110.215065 115.142807,110.923141 
	C114.672455,110.772141 114.202095,110.621140 113.546761,110.299431 
	C113.289848,108.693977 113.217918,107.259239 113.131439,105.391144 
	C113.320351,104.909103 113.506371,104.946289 113.766808,105.177452 
z"/>
<path fill="#181818" opacity="1.000000" stroke="none" 
	d="
M44.923157,110.306259 
	C44.861279,108.638130 44.922112,107.241356 44.994984,105.423866 
	C45.743843,104.947357 46.480671,104.891563 47.572922,104.942139 
	C47.306393,106.497093 46.684441,107.945686 46.188942,109.752319 
	C45.892220,110.266113 45.469044,110.421860 44.923157,110.306259 
z"/>
<path fill="#8BAFC0" opacity="1.000000" stroke="none" 
	d="
M169.095581,79.949806 
	C167.874954,80.151100 166.927338,80.305237 165.754745,80.371155 
	C166.988998,79.966240 168.448196,79.649536 169.907410,79.332832 
	C169.877213,79.473625 169.891022,79.659058 169.805328,79.743576 
	C169.705017,79.842499 169.517990,79.853500 169.095581,79.949806 
z"/>
<path fill="#F9FAFA" opacity="1.000000" stroke="none" 
	d="
M140.863831,105.122681 
	C140.234482,105.448761 139.628906,105.439178 138.723938,105.578217 
	C138.324936,105.449600 138.225296,105.172363 138.060043,104.458359 
	C138.292572,103.556740 138.590744,103.091896 138.888901,102.627045 
	C139.555130,103.347038 140.221359,104.067032 140.863831,105.122681 
z"/>
<path fill="#181818" opacity="1.000000" stroke="none" 
	d="
M86.559921,105.137238 
	C86.949577,106.772850 86.924950,108.424164 86.874161,110.487457 
	C86.613892,108.983940 86.379768,107.068443 86.559921,105.137238 
z"/>
<path fill="#C9C9C9" opacity="1.000000" stroke="none" 
	d="
M141.044342,109.871552 
	C140.593430,108.744431 140.508652,107.637024 140.605286,106.305405 
	C141.010849,106.076942 141.234970,106.072678 141.743317,106.457108 
	C142.066208,107.865005 142.104904,108.884209 142.143600,109.903404 
	C141.899216,109.899361 141.654831,109.895317 141.044342,109.871552 
z"/>
<path fill="#8A8A8A" opacity="1.000000" stroke="none" 
	d="
M89.024811,109.684776 
	C88.840698,108.669388 88.647499,107.282478 88.454292,105.895569 
	C88.588074,105.952515 88.759819,105.976463 88.845604,106.075142 
	C88.943146,106.187332 88.963875,106.366310 89.079666,106.805222 
	C89.099464,107.833878 89.057594,108.573570 89.024811,109.684776 
z"/>
<path fill="#181818" opacity="1.000000" stroke="none" 
	d="
M98.993561,106.427750 
	C99.354530,106.999855 99.572327,107.945053 99.852386,109.199417 
	C99.808151,109.643173 99.701660,109.777771 99.338715,109.935005 
	C99.004959,108.905380 98.927666,107.853119 98.993561,106.427750 
z"/>
<path fill="#181818" opacity="1.000000" stroke="none" 
	d="
M129.246643,110.183929 
	C129.039612,108.946503 129.047119,107.915497 129.096664,106.500015 
	C129.138702,106.115532 129.594498,106.010040 129.814789,105.931366 
	C130.087280,106.047226 130.139450,106.241760 130.127380,106.974747 
	C130.161011,107.659721 130.258881,107.806236 130.356750,107.952759 
	C130.358444,108.547699 130.360153,109.142647 130.195587,110.153114 
	C129.839951,110.509224 129.650574,110.449799 129.246643,110.183929 
z"/>
<path fill="#181818" opacity="1.000000" stroke="none" 
	d="
M142.480835,109.794220 
	C142.104904,108.884209 142.066208,107.865005 142.079453,106.466072 
	C142.360291,107.285896 142.589188,108.485466 142.480835,109.794220 
z"/>
<path fill="#212121" opacity="1.000000" stroke="none" 
	d="
M115.479141,110.967178 
	C115.043312,110.215065 114.943810,109.506996 114.952896,108.448471 
	C115.061485,108.098015 115.492493,108.010101 115.708862,108.049614 
	C115.888641,109.063156 115.852051,110.037178 115.479141,110.967178 
z"/>
<path fill="#DBDBDB" opacity="1.000000" stroke="none" 
	d="
M138.413834,109.031265 
	C138.882401,109.448357 138.972275,109.939362 139.101288,110.679489 
	C138.660934,110.951599 138.181488,110.974586 137.341553,111.002487 
	C137.332443,110.373329 137.683792,109.739250 138.413834,109.031265 
z"/>
<path fill="#F9FAFA" opacity="1.000000" stroke="none" 
	d="
M19.093498,95.897232 
	C18.457455,95.853096 17.996037,95.655640 17.446297,95.217590 
	C17.994694,95.232643 18.631409,95.488281 19.093498,95.897232 
z"/>
<path fill="#DBDBDB" opacity="1.000000" stroke="none" 
	d="
M120.459656,107.523422 
	C120.437973,107.483322 120.481346,107.563515 120.459656,107.523422 
z"/>
<path fill="#FEFEFE" opacity="1.000000" stroke="none" 
	d="
M130.465759,107.849884 
	C130.258881,107.806236 130.161011,107.659721 130.173920,107.273239 
	C130.610840,107.200081 130.707535,107.437996 130.465759,107.849884 
z"/>
<path fill="#AEAEAE" opacity="1.000000" stroke="none" 
	d="
M111.998566,108.201416 
	C111.353394,108.610123 110.749245,108.607300 110.145088,108.604477 
	C110.311340,107.840836 110.477592,107.077187 110.643845,106.313545 
	C111.109093,106.805656 111.574341,107.297775 111.998566,108.201416 
z"/>
</svg>